<svg id="Livello_1" data-name="Livello 1" xmlns="http://www.w3.org/2000/svg" viewBox="0 0 71.75 80.3"><defs><style>.cls-1{fill:none;stroke:#000;stroke-linecap:round;stroke-linejoin:round;stroke-width:0.71px;}</style></defs><title>8</title><g id="Livello_2" data-name="Livello 2"><g id="Livello_1-2" data-name="Livello 1-2"><g id="LINE-2"><line class="cls-1" x1="48.15" y1="0.01" x2="22.82" y2="0.01"/></g><g id="LINE-4"><line class="cls-1" x1="48.15" y1="0.01" x2="22.82" y2="0.01"/></g><g id="LINE-5"><line class="cls-1" x1="22.82" y1="0.13" x2="48.15" y2="0.13"/></g><g id="ARC"><path class="cls-1" d="M22.82-.73A7.85,7.85,0,0,0,15,7.12h0"/></g><g id="LINE-6"><line class="cls-1" x1="14.99" y1="7.09" x2="14.99" y2="71.68"/></g><g id="ARC-2"><path class="cls-1" d="M15,71.68a7.85,7.85,0,0,0,7.85,7.85h0"/></g><g id="LINE-7"><line class="cls-1" x1="22.82" y1="79.5" x2="48.15" y2="79.5"/></g><g id="ARC-3"><path class="cls-1" d="M48.15,79.5A7.85,7.85,0,0,0,56,71.65"/></g><g id="LINE-8"><line class="cls-1" x1="55.98" y1="71.68" x2="55.98" y2="7.09"/></g><g id="ARC-4"><path class="cls-1" d="M56,7.09A7.85,7.85,0,0,0,48.12-.76"/></g><g id="ARC-5"><path class="cls-1" d="M22.82,0a7.09,7.09,0,0,0-7.09,7.09h0"/></g><g id="LINE-9"><line class="cls-1" x1="15.73" y1="7.09" x2="15.73" y2="71.68"/></g><g id="ARC-6"><path class="cls-1" d="M15.73,71.68a7.09,7.09,0,0,0,7.09,7.09h0"/></g><g id="LINE-10"><line class="cls-1" x1="22.82" y1="78.77" x2="48.15" y2="78.77"/></g><g id="ARC-7"><path class="cls-1" d="M48.15,78.77a7.09,7.09,0,0,0,7.09-7.09h0"/></g><g id="LINE-11"><line class="cls-1" x1="55.24" y1="71.68" x2="55.24" y2="7.09"/></g><g id="ARC-8"><path class="cls-1" d="M55.24,7.09A7.09,7.09,0,0,0,48.15,0h0"/></g><g id="ARC-9"><path class="cls-1" d="M22.82-.73A7.85,7.85,0,0,0,15,7.12h0"/></g><g id="LINE-12"><line class="cls-1" x1="14.99" y1="7.09" x2="14.99" y2="71.68"/></g><g id="ARC-10"><path class="cls-1" d="M15,71.68a7.85,7.85,0,0,0,7.85,7.85h0"/></g><g id="LINE-13"><line class="cls-1" x1="22.82" y1="79.5" x2="48.15" y2="79.5"/></g><g id="ARC-11"><path class="cls-1" d="M48.15,79.5A7.85,7.85,0,0,0,56,71.65"/></g><g id="LINE-14"><line class="cls-1" x1="55.98" y1="71.68" x2="55.98" y2="7.09"/></g><g id="ARC-12"><path class="cls-1" d="M56,7.09A7.85,7.85,0,0,0,48.12-.76"/></g><g id="ARC-13"><path class="cls-1" d="M22.82,0a7.09,7.09,0,0,0-7.09,7.09h0"/></g><g id="ARC-14"><path class="cls-1" d="M55.24,7.09A7.09,7.09,0,0,0,48.15,0h0"/></g><g id="LINE-15"><line class="cls-1" x1="55.24" y1="71.68" x2="55.24" y2="7.09"/></g><g id="ARC-15"><path class="cls-1" d="M48.15,78.77a7.09,7.09,0,0,0,7.09-7.09h0"/></g><g id="LINE-16"><line class="cls-1" x1="22.82" y1="78.77" x2="48.15" y2="78.77"/></g><g id="ARC-16"><path class="cls-1" d="M15.73,71.68a7.09,7.09,0,0,0,7.09,7.09h0"/></g><g id="LINE-17"><line class="cls-1" x1="15.73" y1="7.09" x2="15.73" y2="71.68"/></g><g id="ARC-17"><path class="cls-1" d="M22.82.13a7,7,0,0,0-7,7"/></g><g id="ARC-18"><path class="cls-1" d="M55.11,7.09a7,7,0,0,0-7-7h0"/></g><g id="LINE-18"><line class="cls-1" x1="55.11" y1="7.09" x2="55.11" y2="71.68"/></g><g id="ARC-19"><path class="cls-1" d="M48.15,78.64a7,7,0,0,0,7-7h0"/></g><g id="LINE-19"><line class="cls-1" x1="48.15" y1="78.64" x2="22.82" y2="78.64"/></g><g id="ARC-20"><path class="cls-1" d="M15.86,71.68a7,7,0,0,0,7,7"/></g><g id="LINE-20"><line class="cls-1" x1="15.86" y1="71.68" x2="15.86" y2="7.09"/></g></g></g></svg>