<svg id="Livello_1" data-name="Livello 1" xmlns="http://www.w3.org/2000/svg" viewBox="0 0 41.75 81"><defs><style>.cls-1{fill:none;stroke:#000;stroke-linecap:round;stroke-linejoin:round;stroke-width:0.71px;}</style></defs><title>8</title><g id="Livello_2" data-name="Livello 2"><g id="Livello_1-2" data-name="Livello 1-2"><g id="LINE"><line class="cls-1" x1="33.54" y1="0.38" x2="8.21" y2="0.38"/></g><g id="LINE-2"><line class="cls-1" x1="33.54" y1="1.12" x2="8.21" y2="1.12"/></g><g id="LINE-3"><line class="cls-1" x1="33.54" y1="0.38" x2="8.21" y2="0.38"/></g><g id="LINE-4"><line class="cls-1" x1="33.54" y1="1.12" x2="8.21" y2="1.12"/></g><g id="LINE-5"><line class="cls-1" x1="8.21" y1="1.25" x2="33.54" y2="1.25"/></g><g id="ARC"><path class="cls-1" d="M22.82-.73A7.85,7.85,0,0,0,15,7.12h0" transform="translate(-14.61 1.11)"/></g><g id="LINE-6"><line class="cls-1" x1="0.38" y1="8.21" x2="0.38" y2="72.8"/></g><g id="ARC-2"><path class="cls-1" d="M15,71.68a7.85,7.85,0,0,0,7.85,7.85h0" transform="translate(-14.61 1.11)"/></g><g id="LINE-7"><line class="cls-1" x1="8.21" y1="80.62" x2="33.54" y2="80.62"/></g><g id="ARC-3"><path class="cls-1" d="M48.15,79.5A7.85,7.85,0,0,0,56,71.65" transform="translate(-14.61 1.11)"/></g><g id="LINE-8"><line class="cls-1" x1="41.37" y1="72.8" x2="41.37" y2="8.21"/></g><g id="ARC-4"><path class="cls-1" d="M56,7.09A7.85,7.85,0,0,0,48.12-.76" transform="translate(-14.61 1.11)"/></g><g id="ARC-5"><path class="cls-1" d="M22.82,0a7.09,7.09,0,0,0-7.09,7.09h0" transform="translate(-14.61 1.11)"/></g><g id="LINE-9"><line class="cls-1" x1="1.12" y1="8.21" x2="1.12" y2="72.8"/></g><g id="ARC-6"><path class="cls-1" d="M15.73,71.68a7.09,7.09,0,0,0,7.09,7.09h0" transform="translate(-14.61 1.11)"/></g><g id="LINE-10"><line class="cls-1" x1="8.21" y1="79.88" x2="33.54" y2="79.88"/></g><g id="ARC-7"><path class="cls-1" d="M48.15,78.77a7.09,7.09,0,0,0,7.09-7.09h0" transform="translate(-14.61 1.11)"/></g><g id="LINE-11"><line class="cls-1" x1="40.63" y1="72.8" x2="40.63" y2="8.21"/></g><g id="ARC-8"><path class="cls-1" d="M55.24,7.09A7.09,7.09,0,0,0,48.15,0h0" transform="translate(-14.61 1.11)"/></g><g id="ARC-9"><path class="cls-1" d="M22.82-.73A7.85,7.85,0,0,0,15,7.12h0" transform="translate(-14.61 1.11)"/></g><g id="LINE-12"><line class="cls-1" x1="0.38" y1="8.21" x2="0.38" y2="72.8"/></g><g id="ARC-10"><path class="cls-1" d="M15,71.68a7.85,7.85,0,0,0,7.85,7.85h0" transform="translate(-14.61 1.11)"/></g><g id="LINE-13"><line class="cls-1" x1="8.21" y1="80.62" x2="33.54" y2="80.62"/></g><g id="ARC-11"><path class="cls-1" d="M48.15,79.5A7.85,7.85,0,0,0,56,71.65" transform="translate(-14.61 1.11)"/></g><g id="LINE-14"><line class="cls-1" x1="41.37" y1="72.8" x2="41.37" y2="8.21"/></g><g id="ARC-12"><path class="cls-1" d="M56,7.09A7.85,7.85,0,0,0,48.12-.76" transform="translate(-14.61 1.11)"/></g><g id="ARC-13"><path class="cls-1" d="M22.82,0a7.09,7.09,0,0,0-7.09,7.09h0" transform="translate(-14.61 1.11)"/></g><g id="ARC-14"><path class="cls-1" d="M55.24,7.09A7.09,7.09,0,0,0,48.15,0h0" transform="translate(-14.61 1.11)"/></g><g id="LINE-15"><line class="cls-1" x1="40.63" y1="72.8" x2="40.63" y2="8.21"/></g><g id="ARC-15"><path class="cls-1" d="M48.15,78.77a7.09,7.09,0,0,0,7.09-7.09h0" transform="translate(-14.61 1.11)"/></g><g id="LINE-16"><line class="cls-1" x1="8.21" y1="79.88" x2="33.54" y2="79.88"/></g><g id="ARC-16"><path class="cls-1" d="M15.73,71.68a7.09,7.09,0,0,0,7.09,7.09h0" transform="translate(-14.61 1.11)"/></g><g id="LINE-17"><line class="cls-1" x1="1.12" y1="8.21" x2="1.12" y2="72.8"/></g><g id="ARC-17"><path class="cls-1" d="M22.82.13a7,7,0,0,0-7,7" transform="translate(-14.61 1.11)"/></g><g id="ARC-18"><path class="cls-1" d="M55.11,7.09a7,7,0,0,0-7-7h0" transform="translate(-14.61 1.11)"/></g><g id="LINE-18"><line class="cls-1" x1="40.5" y1="8.21" x2="40.5" y2="72.8"/></g><g id="ARC-19"><path class="cls-1" d="M48.15,78.64a7,7,0,0,0,7-7h0" transform="translate(-14.61 1.11)"/></g><g id="LINE-19"><line class="cls-1" x1="33.54" y1="79.76" x2="8.21" y2="79.76"/></g><g id="ARC-20"><path class="cls-1" d="M15.86,71.68a7,7,0,0,0,7,7" transform="translate(-14.61 1.11)"/></g><g id="LINE-20"><line class="cls-1" x1="1.25" y1="72.8" x2="1.25" y2="8.21"/></g></g></g></svg>