<?xml version="1.0" encoding="iso-8859-1"?>
<!-- Generator: Adobe Illustrator 16.0.0, SVG Export Plug-In . SVG Version: 6.00 Build 0)  -->
<!DOCTYPE svg PUBLIC "-//W3C//DTD SVG 1.1//EN" "http://www.w3.org/Graphics/SVG/1.1/DTD/svg11.dtd">
<svg version="1.1" id="Capa_1" xmlns="http://www.w3.org/2000/svg" xmlns:xlink="http://www.w3.org/1999/xlink" x="0px" y="0px"
	 width="292.342px" height="292.342px" viewBox="0 0 292.342 292.342" style="enable-background:new 0 0 292.342 292.342;"
	 xml:space="preserve">
<g>
	<circle cx="82.061" cy="127.546" r="19.083"/>
	<path d="M209.849,108.464c10.538,0,19.081,8.544,19.081,19.084c0,10.537-8.543,19.081-19.081,19.081
		c-10.543,0-19.087-8.544-19.087-19.081C190.762,117.008,199.306,108.464,209.849,108.464z"/>
	<polygon points="227.465,213.232 64.874,213.232 57.754,235.09 234.595,235.09 	"/>
	<path d="M281.742,57.252H10.605C4.746,57.252,0,62.003,0,67.857v156.627c0,5.852,4.746,10.605,10.605,10.605h30.419l12.303-37.765
		h185.69l12.298,37.765h30.421c5.856,0,10.605-4.754,10.605-10.605V67.857C292.347,62.003,287.593,57.252,281.742,57.252z
		 M276.315,168.084H15.837v-72.76l11.449-12.218h237.771l11.258,12.218V168.084z"/>
</g>
<g>
</g>
<g>
</g>
<g>
</g>
<g>
</g>
<g>
</g>
<g>
</g>
<g>
</g>
<g>
</g>
<g>
</g>
<g>
</g>
<g>
</g>
<g>
</g>
<g>
</g>
<g>
</g>
<g>
</g>
</svg>
