<?xml version="1.0" encoding="iso-8859-1"?>
<!-- Generator: Adobe Illustrator 19.0.0, SVG Export Plug-In . SVG Version: 6.00 Build 0)  -->
<svg version="1.1" id="Capa_1" xmlns="http://www.w3.org/2000/svg" xmlns:xlink="http://www.w3.org/1999/xlink" x="0px" y="0px"
	 viewBox="0 0 489.4 489.4" style="enable-background:new 0 0 489.4 489.4;" xml:space="preserve">
<g>
	<g>
		<path d="M235.3,0c-42.7,0-78.1,35.4-78.1,78.1v333.2c0,42.7,35.4,78.1,78.1,78.1s78.1-35.4,78.1-78.1V78.1
			C313.4,35.4,278,0,235.3,0z M272.8,411.3c0,20.8-16.7,37.5-37.5,37.5s-37.5-16.7-37.5-37.5V78.1c0-20.8,16.7-37.5,37.5-37.5
			s37.5,16.7,37.5,37.5V411.3z"/>
		<path d="M235.3,86.4c-11.5,0-20.8,9.4-20.8,20.8v9.4c0,11.5,9.4,20.8,20.8,20.8c11.4,0,20.8-9.4,20.8-20.8v-9.4
			C256.2,95.8,246.8,86.4,235.3,86.4z"/>
		<path d="M235.3,350.9c-11.5,0-20.8,9.4-20.8,20.8v9.4c0,11.5,9.4,20.8,20.8,20.8c11.4,0,20.8-9.4,20.8-20.8v-9.4
			C256.2,360.3,246.8,350.9,235.3,350.9z"/>
		<path d="M411.3,0c-42.7,0-78.1,35.4-78.1,78.1v333.2c0,42.7,35.4,78.1,78.1,78.1s78.1-35.4,78.1-78.1V78.1
			C489.4,35.4,454,0,411.3,0z M448.8,411.3c0,20.8-16.7,37.5-37.5,37.5s-37.5-16.7-37.5-37.5V78.1c0-20.8,16.7-37.5,37.5-37.5
			s37.5,16.7,37.5,37.5V411.3z"/>
		<path d="M411.3,86.4c-11.5,0-20.8,9.4-20.8,20.8v9.4c0,11.5,9.4,20.8,20.8,20.8c11.5,0,20.8-9.4,20.8-20.8v-9.4
			C432.1,95.8,422.7,86.4,411.3,86.4z"/>
		<path d="M411.3,350.9c-11.5,0-20.8,9.4-20.8,20.8v9.4c0,11.5,9.4,20.8,20.8,20.8c11.5,0,20.8-9.4,20.8-20.8v-9.4
			C432.1,360.3,422.7,350.9,411.3,350.9z"/>
		<path d="M67.7,51C30.2,51,0,81.2,0,118.7c0,30.2,19.6,55.7,46.9,64.4v235.4c0,11.5,9.4,20.8,20.8,20.8c11.5,0,20.8-9.4,20.8-20.8
			V183c27.2-9,46.9-35,46.9-64.3C135.4,81.2,105.2,51,67.7,51z M67.7,144.8c-14.6,0-27.1-12.5-27.1-27.1s12.5-27.1,27.1-27.1
			s27.1,12.5,27.1,27.1S82.3,144.8,67.7,144.8z"/>
	</g>
</g>
<g>
</g>
<g>
</g>
<g>
</g>
<g>
</g>
<g>
</g>
<g>
</g>
<g>
</g>
<g>
</g>
<g>
</g>
<g>
</g>
<g>
</g>
<g>
</g>
<g>
</g>
<g>
</g>
<g>
</g>
</svg>
